<?xml version="1.0" encoding="iso-8859-1"?>
<!-- Generator: Adobe Illustrator 19.0.0, SVG Export Plug-In . SVG Version: 6.00 Build 0)  -->
<svg version="1.1" id="Layer_1" xmlns="http://www.w3.org/2000/svg" xmlns:xlink="http://www.w3.org/1999/xlink" x="0px" y="0px"
	 viewBox="0 0 492.623 492.623" style="enable-background:new 0 0 492.623 492.623;" xml:space="preserve">
<path style="fill:#148DE0;" d="M492.623,429.076V169.326c0-58.423-47.356-105.787-105.771-105.787h-47.033
	c-58.415,0-105.771,47.364-105.771,105.787v259.757h258.576V429.076z"/>
<g>
	<path style="fill:#0C76BF;" d="M492.623,429.076V169.326c0-58.423-47.356-105.787-105.771-105.787h-47.033
		c-58.415,0-105.771,47.364-105.771,105.787"/>
	<path style="fill:#0C76BF;" d="M377.73,348.542c0,3.529-2.844,6.388-6.372,6.388h-26.214c-3.505,0-6.357-2.851-6.357-6.388l0,0
		c0-3.505,2.844-6.365,6.357-6.365h26.214C374.879,342.185,377.73,345.037,377.73,348.542L377.73,348.542z"/>
	<path style="fill:#0C76BF;" d="M377.73,403.239c0,3.521-2.844,6.38-6.372,6.38h-26.214c-3.505,0-6.357-2.851-6.357-6.38l0,0
		c0-3.513,2.844-6.365,6.357-6.365h26.214C374.879,396.875,377.73,399.726,377.73,403.239L377.73,403.239z"/>
	<path style="fill:#0C76BF;" d="M400.203,371.023c0,3.521-2.859,6.372-6.372,6.372h-26.214c-3.505,0-6.372-2.844-6.372-6.372l0,0
		c0-3.505,2.859-6.365,6.372-6.365h26.214C397.344,364.658,400.203,367.518,400.203,371.023L400.203,371.023z"/>
</g>
<g>
	<path style="fill:#148DE0;" d="M412.467,264.424c0-3.529,2.828-6.388,6.372-6.388h26.199c3.505,0,6.372,2.851,6.372,6.388l0,0
		c0,3.505-2.859,6.365-6.372,6.365H418.84C415.295,270.781,412.467,267.93,412.467,264.424L412.467,264.424z"/>
	<path style="fill:#148DE0;" d="M412.467,209.727c0-3.521,2.828-6.38,6.372-6.38h26.199c3.505,0,6.372,2.851,6.372,6.38l0,0
		c0,3.513-2.859,6.365-6.372,6.365H418.84C415.295,216.092,412.467,213.248,412.467,209.727L412.467,209.727z"/>
	<path style="fill:#148DE0;" d="M389.986,241.944c0-3.521,2.844-6.372,6.372-6.372h26.199c3.521,0,6.372,2.844,6.372,6.372l0,0
		c0,3.505-2.844,6.365-6.372,6.365h-26.199C392.838,248.308,389.986,245.457,389.986,241.944L389.986,241.944z"/>
</g>
<path style="fill:#FF7C24;" d="M386.851,63.539h-47.033c-58.415,0-105.771,47.364-105.771,105.787l0.465,0.473h258.111v-0.473
	C492.623,110.903,445.267,63.539,386.851,63.539z"/>
<g>
	<path style="fill:#FFA522;" d="M386.851,63.539h-47.033c-58.415,0-105.771,47.364-105.771,105.787l0.465,0.473"/>
	<path style="fill:#FFA522;" d="M234.047,169.326v6.38h258.576v-6.38c0-1.497-0.165-2.962-0.228-4.45H234.268
		C234.205,166.365,234.047,167.822,234.047,169.326z"/>
</g>
<polygon style="fill:#D14A2F;" points="355.344,422.672 355.344,296.153 259.954,200.771 125.046,200.771 29.664,296.153 
	29.664,422.672 "/>
<polyline style="fill:#BC3C1E;" points="355.344,422.672 355.344,296.153 259.954,200.771 125.046,200.771 29.664,296.153 "/>
<polygon style="fill:#931C0C;" points="353.847,294.672 259.954,200.771 125.046,200.771 31.161,294.672 "/>
<polyline style="fill:#AA2D15;" points="125.046,200.771 31.161,294.672 353.847,294.672 "/>
<polygon style="fill:#7F1105;" points="125.046,200.771 29.664,296.153 29.664,310.426 31.161,310.426 125.046,216.525 
	259.954,216.525 353.847,310.426 355.344,310.426 355.344,296.153 259.954,200.771 "/>
<path style="fill:#470E0E;" d="M385,285.92c-1.552-4.474-3.962-8.633-7.381-12.044l-95.382-95.382
	c-5.908-5.916-13.926-9.232-22.276-9.232H125.046c-8.357,0-16.368,3.316-22.276,9.232L7.389,273.877
	C3.97,277.287,1.56,281.439,0,285.913c4.34,5.301,10.847,8.751,18.227,8.751h12.926l93.893-93.901h134.908l93.893,93.901h12.942
	C374.154,294.672,380.668,291.214,385,285.92z"/>
<path style="fill:#260707;" d="M259.954,191.413H125.046c-8.357,0-16.368,3.316-22.276,9.232l-92.475,92.467
	c2.489,0.914,5.12,1.552,7.94,1.552h12.926l93.893-93.901h134.908l93.893,93.901h12.942c2.812,0,5.427-0.63,7.924-1.552
	l-92.475-92.467C276.33,194.729,268.312,191.413,259.954,191.413z"/>
<g>
	<path style="fill:#AA2D15;" d="M239.529,422.672h-94.05c-3.111,0-5.648-2.544-5.648-5.648v-94.05c0-3.104,2.536-5.648,5.648-5.648
		h94.043c3.135,0,5.648,2.544,5.648,5.648v94.05C245.169,420.12,242.664,422.672,239.529,422.672z M151.127,411.376h82.755v-82.763
		h-82.755V411.376z"/>
	<path style="fill:#AA2D15;" d="M150.804,417.331c-1.418,0-2.875-0.544-3.986-1.631c-2.182-2.206-2.182-5.805,0-7.995l83.354-83.385
		c2.229-2.158,5.797-2.206,7.987,0c2.213,2.198,2.213,5.79,0,7.995l-83.338,83.385C153.695,416.772,152.253,417.331,150.804,417.331
		z"/>
	<path style="fill:#AA2D15;" d="M234.189,417.331c-1.449,0-2.907-0.559-4.017-1.631l-83.354-83.385c-2.182-2.198-2.182-5.79,0-7.995
		c2.213-2.206,5.782-2.206,8.003,0l83.338,83.385c2.213,2.182,2.213,5.782,0,7.995C237.064,416.788,235.622,417.331,234.189,417.331
		z"/>
	<path style="fill:#AA2D15;" d="M362.016,423.168c0,3.261-2.647,5.908-5.908,5.908H31.846c-3.261,0-5.908-2.647-5.908-5.908l0,0
		c0-3.261,2.647-5.908,5.908-5.908h324.261C359.377,417.26,362.016,419.907,362.016,423.168L362.016,423.168z"/>
</g>
<g>
</g>
<g>
</g>
<g>
</g>
<g>
</g>
<g>
</g>
<g>
</g>
<g>
</g>
<g>
</g>
<g>
</g>
<g>
</g>
<g>
</g>
<g>
</g>
<g>
</g>
<g>
</g>
<g>
</g>
</svg>
