<?xml version="1.0" encoding="iso-8859-1"?>
<!-- Generator: Adobe Illustrator 19.0.0, SVG Export Plug-In . SVG Version: 6.00 Build 0)  -->
<svg version="1.1" id="Layer_1" xmlns="http://www.w3.org/2000/svg" xmlns:xlink="http://www.w3.org/1999/xlink" x="0px" y="0px"
	 viewBox="0 0 488.369 488.369" style="enable-background:new 0 0 488.369 488.369;" xml:space="preserve">
<path style="fill:#C0F0F2;" d="M236.607,291.225c-11.311,0-21.701,3.718-30.145,9.933c-9.295-9.996-22.528-16.289-37.266-16.289
	c-8.909,0-17.274,2.308-24.56,6.317c-8.31-9.57-19.621-16.431-32.524-19.046c-6.892-50.208-49.837-88.915-101.935-88.915
	c-3.426,0-6.837,0.181-10.169,0.504v205.013c3.332,0.323,6.743,0.512,10.169,0.512c19.385,0,37.455-5.459,52.933-14.769
	c10.145,8.42,23.158,13.485,37.368,13.485c13.8,0,26.466-4.813,36.47-12.8c8.775,7.192,20.007,11.524,32.248,11.524
	c11.303,0,21.701-3.718,30.145-9.941c9.295,10.004,22.536,16.305,37.274,16.305c28.121,0,50.909-22.812,50.909-50.932
	C287.516,314.013,264.72,291.225,236.607,291.225z"/>
<path style="fill:#9CD8E2;" d="M236.607,309.026c-11.311,0-21.701,3.718-30.145,9.941c-9.295-10.004-22.528-16.289-37.266-16.289
	c-8.909,0-17.274,2.3-24.56,6.309c-8.31-9.57-19.621-16.439-32.524-19.046c-6.892-50.2-49.837-88.923-101.935-88.923
	c-3.426,0-6.837,0.189-10.169,0.52v204.997c3.332,0.339,6.743,0.52,10.169,0.52c19.385,0,37.455-5.459,52.933-14.761
	c10.145,8.42,23.158,13.485,37.368,13.485c13.8,0,26.466-4.813,36.47-12.808c8.775,7.207,20.007,11.532,32.248,11.532
	c11.303,0,21.701-3.734,30.145-9.949c9.295,10.004,22.536,16.305,37.274,16.305c28.121,0,50.909-22.804,50.909-50.924
	C287.516,331.814,264.72,309.026,236.607,309.026z"/>
<path style="fill:#C0F0F2;" d="M251.762,291.225c11.311,0,21.701,3.718,30.145,9.933c9.295-9.996,22.528-16.289,37.266-16.289
	c8.909,0,17.274,2.308,24.56,6.317c8.302-9.57,19.629-16.431,32.524-19.046c6.884-50.208,49.837-88.915,101.943-88.915
	c3.419,0,6.821,0.181,10.161,0.504v205.013c-3.34,0.323-6.743,0.512-10.161,0.512c-19.393,0-37.463-5.459-52.949-14.769
	c-10.138,8.42-23.158,13.485-37.36,13.485c-13.808,0-26.459-4.813-36.47-12.8c-8.775,7.192-20.007,11.524-32.248,11.524
	c-11.303,0-21.701-3.718-30.145-9.941c-9.295,10.004-22.536,16.305-37.274,16.305c-28.121,0-50.909-22.812-50.909-50.932
	C200.854,314.013,223.649,291.225,251.762,291.225z"/>
<path style="fill:#9CD8E2;" d="M251.762,309.026c11.311,0,21.701,3.718,30.145,9.941c9.295-10.004,22.528-16.289,37.266-16.289
	c8.909,0,17.274,2.3,24.56,6.309c8.302-9.57,19.629-16.439,32.524-19.046c6.884-50.2,49.837-88.923,101.943-88.923
	c3.419,0,6.821,0.189,10.161,0.52v204.997c-3.34,0.339-6.743,0.52-10.161,0.52c-19.393,0-37.463-5.459-52.949-14.761
	c-10.138,8.42-23.158,13.485-37.36,13.485c-13.808,0-26.459-4.813-36.47-12.808c-8.775,7.207-20.007,11.532-32.248,11.532
	c-11.303,0-21.701-3.734-30.145-9.949c-9.295,10.004-22.536,16.305-37.274,16.305c-28.121,0-50.909-22.804-50.909-50.924
	C200.854,331.814,223.649,309.026,251.762,309.026z"/>
<g>
	<g>
		<path id="SVGCleanerId_0" style="fill:#7DA81D;" d="M488.369,315.722C256.181,317.817,61.487,389.04,0,485.911h488.369V315.722z"
			/>
	</g>
	<g>
		<path id="SVGCleanerId_0_1_" style="fill:#7DA81D;" d="M488.369,315.722C256.181,317.817,61.487,389.04,0,485.911h488.369V315.722
			z"/>
	</g>
</g>
<g>
	<path id="SVGCleanerId_0_2_" style="fill:#2D7216;" d="M488.369,315.722C256.181,317.817,61.487,389.04,0,485.911h488.369V315.722z
		"/>
</g>
<g>
	<path style="fill:#42892E;" d="M91.152,485.911c79.321-65.701,225.571-112.341,397.217-121.029v-24.836
		c-202.295,6.002-372.831,64.536-446.173,145.865L91.152,485.911L91.152,485.911z"/>
	<path style="fill:#42892E;" d="M488.369,416.034v-25.765c-140.004,10.082-261.341,45.489-340.378,95.65h67.017
		C286.775,451.047,381.487,426.085,488.369,416.034z"/>
	<path style="fill:#42892E;" d="M488.369,469.314v-26.908c-71.365,8.326-136.799,23.339-192.811,43.504h104.7
		C428.237,479.223,457.665,473.615,488.369,469.314z"/>
</g>
<path style="fill:#7DA81D;" d="M0,315.722c232.188,2.095,426.874,73.318,488.369,170.189H0V315.722z"/>
<g>
	<path style="fill:#96C610;" d="M397.21,485.911C317.889,420.217,171.638,373.57,0,364.89v-24.836
		c202.287,6.002,372.823,64.536,446.173,145.865H397.21V485.911z"/>
	<path style="fill:#96C610;" d="M0,416.034v-25.765c140.004,10.082,261.333,45.489,340.385,95.65h-67.025
		C201.594,451.047,106.874,426.085,0,416.034z"/>
	<path style="fill:#96C610;" d="M0,469.314v-26.908c71.357,8.326,136.791,23.339,192.811,43.504H88.103
		C60.125,479.223,30.704,473.615,0,469.314z"/>
</g>
<circle style="fill:#F49C00;" cx="244.185" cy="142.524" r="99.194"/>
<g>
	<path style="fill:#F28A00;" d="M343.379,142.524c0,54.792-44.402,99.202-99.194,99.202c-54.8,0-99.202-44.418-99.202-99.202"/>
	<path style="fill:#F28A00;" d="M321.883,68.52c-0.677-0.685-1.111-1.638-1.111-2.702c0-5.766,2.245-11.201,6.333-15.281
		c4.072-4.08,9.515-6.325,15.281-6.325c2.111,0.008,3.812,1.701,3.812,3.812c0,2.119-1.709,3.812-3.812,3.812
		c-3.742,0-7.247,1.465-9.886,4.096c-2.639,2.639-4.096,6.152-4.096,9.886c0,2.111-1.709,3.82-3.82,3.82
		C323.529,69.639,322.584,69.214,321.883,68.52z"/>
	<path style="fill:#F28A00;" d="M166.479,216.543c0.685,0.693,1.111,1.654,1.111,2.702c0.016,5.758-2.237,11.209-6.317,15.273
		c-4.08,4.096-9.523,6.341-15.289,6.341c-2.103,0-3.82-1.701-3.82-3.82c0-2.095,1.725-3.812,3.82-3.812
		c3.749,0,7.247-1.449,9.893-4.096c2.623-2.631,4.088-6.144,4.088-9.878c0-2.119,1.701-3.812,3.82-3.812
		C164.84,215.433,165.778,215.866,166.479,216.543z"/>
	<path style="fill:#F28A00;" d="M246.8,35.248c-0.985,0-1.969-0.37-2.702-1.119c-4.08-4.072-6.325-9.507-6.325-15.273
		c0-5.782,2.245-11.217,6.325-15.289c1.489-1.489,3.907-1.489,5.396,0c1.497,1.489,1.497,3.907,0,5.396
		c-2.639,2.647-4.088,6.168-4.088,9.893s1.449,7.239,4.088,9.878c1.497,1.489,1.497,3.907,0,5.396
		C248.745,34.878,247.769,35.248,246.8,35.248z"/>
	<path style="fill:#F28A00;" d="M241.569,249.816c0.985,0,1.961,0.37,2.702,1.118c4.08,4.072,6.333,9.507,6.333,15.273
		c0,5.774-2.253,11.209-6.333,15.289c-1.489,1.489-3.915,1.489-5.404,0c-1.489-1.481-1.489-3.899,0-5.396
		c2.639-2.655,4.096-6.16,4.096-9.893c0-3.734-1.457-7.247-4.096-9.886c-1.489-1.489-1.489-3.907,0-5.388
		C239.624,250.186,240.601,249.816,241.569,249.816z"/>
	<path style="fill:#F28A00;" d="M351.46,145.131c0-0.969,0.37-1.938,1.119-2.678c4.072-4.088,9.523-6.341,15.281-6.341
		c5.782,0,11.201,2.253,15.289,6.341c1.481,1.481,1.489,3.899,0,5.388c-1.497,1.489-3.907,1.489-5.388,0
		c-2.647-2.647-6.16-4.096-9.901-4.096c-3.734,0-7.239,1.449-9.878,4.096c-1.497,1.489-3.907,1.489-5.404,0
		C351.839,147.093,351.46,146.124,351.46,145.131z"/>
	<path style="fill:#F28A00;" d="M136.901,139.925c0,0.977-0.37,1.961-1.111,2.702c-4.072,4.088-9.515,6.325-15.273,6.325
		c-5.797,0-11.209-2.237-15.297-6.325c-1.489-1.497-1.489-3.915,0-5.396c1.489-1.489,3.899-1.489,5.396,0
		c2.647,2.639,6.152,4.096,9.901,4.096c3.718,0,7.223-1.457,9.862-4.096c1.489-1.489,3.915-1.489,5.411,0
		C136.531,137.979,136.901,138.956,136.901,139.925z"/>
	<path style="fill:#F28A00;" d="M318.204,220.23c0.685-0.693,1.638-1.111,2.67-1.111c5.79-0.008,11.225,2.253,15.305,6.325
		c4.088,4.088,6.333,9.531,6.333,15.289c0,2.103-1.709,3.805-3.805,3.805c-2.119,0-3.82-1.686-3.82-3.805
		c0.008-3.742-1.465-7.239-4.104-9.893c-2.639-2.639-6.136-4.104-9.909-4.096c-2.095,0-3.805-1.701-3.805-3.812
		C317.086,221.884,317.511,220.931,318.204,220.23z"/>
	<path style="fill:#F28A00;" d="M170.157,64.826c-0.677,0.685-1.638,1.119-2.678,1.119c-5.782,0.016-11.217-2.237-15.289-6.317
		c-4.104-4.096-6.333-9.507-6.333-15.297c0-2.119,1.701-3.812,3.805-3.812c2.103,0,3.82,1.694,3.82,3.812
		c0,3.742,1.449,7.247,4.096,9.909c2.631,2.631,6.144,4.08,9.901,4.072c2.095,0,3.805,1.725,3.805,3.812
		C171.284,63.188,170.843,64.141,170.157,64.826z"/>
	<path style="fill:#F28A00;" d="M192.796,48.332c-0.843,0.48-1.875,0.638-2.907,0.37c-5.569-1.489-10.232-5.073-13.115-10.067
		c-2.891-5.002-3.671-10.831-2.158-16.408c0.528-2.048,2.639-3.253,4.663-2.702c2.048,0.536,3.245,2.639,2.694,4.671
		c-0.969,3.616-0.457,7.389,1.402,10.626c1.859,3.222,4.876,5.545,8.499,6.522c2.024,0.528,3.237,2.639,2.702,4.655
		C194.3,47.016,193.638,47.836,192.796,48.332z"/>
	<path style="fill:#F28A00;" d="M295.566,236.74c0.827-0.488,1.875-0.654,2.875-0.362c5.577,1.481,10.248,5.065,13.131,10.059
		c2.883,5.01,3.671,10.831,2.174,16.408c-0.559,2.032-2.655,3.245-4.679,2.686c-2.032-0.551-3.253-2.631-2.694-4.671
		c0.977-3.616,0.457-7.381-1.402-10.61c-1.875-3.237-4.868-5.545-8.483-6.514c-2.056-0.536-3.253-2.639-2.718-4.671
		C294.061,238.048,294.723,237.228,295.566,236.74z"/>
	<path style="fill:#F28A00;" d="M338.385,91.151c-0.473-0.835-0.638-1.867-0.362-2.891c1.481-5.577,5.065-10.24,10.059-13.123
		c5.01-2.891,10.831-3.655,16.408-2.158c2.032,0.559,3.245,2.639,2.702,4.671c-0.559,2.04-2.655,3.253-4.679,2.694
		c-3.608-0.969-7.381-0.465-10.61,1.402c-3.253,1.867-5.561,4.876-6.522,8.507c-0.544,2.04-2.631,3.245-4.671,2.686
		C339.684,92.663,338.889,91.994,338.385,91.151z"/>
	<path style="fill:#F28A00;" d="M149.969,193.929c0.496,0.827,0.638,1.875,0.37,2.891c-1.481,5.569-5.073,10.24-10.043,13.115
		c-5.033,2.883-10.847,3.655-16.423,2.15c-2.048-0.536-3.253-2.623-2.678-4.663c0.536-2.032,2.615-3.245,4.663-2.702
		c3.6,0.977,7.381,0.48,10.626-1.402c3.222-1.851,5.53-4.868,6.491-8.483c0.544-2.04,2.623-3.245,4.687-2.702
		C148.669,192.424,149.48,193.086,149.969,193.929z"/>
	<path style="fill:#F28A00;" d="M347.12,172.819c0.244-0.937,0.874-1.788,1.788-2.308c4.986-2.891,10.815-3.663,16.408-2.166
		c5.561,1.504,10.24,5.088,13.115,10.082c1.04,1.82,0.441,4.159-1.402,5.215c-1.827,1.048-4.151,0.425-5.207-1.402
		c-1.859-3.245-4.876-5.537-8.507-6.522c-3.6-0.969-7.381-0.48-10.594,1.41c-1.835,1.048-4.159,0.425-5.215-1.402
		C346.994,174.804,346.884,173.756,347.12,172.819z"/>
	<path style="fill:#F28A00;" d="M141.217,112.245c-0.236,0.945-0.859,1.796-1.772,2.324c-4.986,2.899-10.831,3.655-16.376,2.158
		c-5.601-1.481-10.256-5.065-13.147-10.075c-1.063-1.835-0.425-4.159,1.402-5.207c1.82-1.048,4.151-0.449,5.215,1.394
		c1.867,3.237,4.868,5.545,8.507,6.522c3.592,0.969,7.357,0.473,10.587-1.402c1.827-1.048,4.159-0.425,5.199,1.394
		C141.367,110.276,141.47,111.308,141.217,112.245z"/>
</g>
<path id="SVGCleanerId_1" style="fill:#F28A00;" d="M152.576,86.645c-0.488,0.835-1.3,1.481-2.332,1.772
	c-5.561,1.497-11.39,0.733-16.384-2.158c-5.01-2.891-8.586-7.546-10.09-13.131c-0.544-2.032,0.662-4.128,2.694-4.663
	c2.056-0.559,4.135,0.662,4.671,2.694c0.977,3.608,3.293,6.632,6.538,8.499c3.214,1.859,6.987,2.363,10.61,1.394
	c2.024-0.544,4.112,0.67,4.679,2.694C153.23,84.755,153.049,85.794,152.576,86.645z"/>
<path id="SVGCleanerId_2" style="fill:#F28A00;" d="M335.777,198.434c0.488-0.835,1.3-1.504,2.316-1.764
	c5.577-1.512,11.406-0.74,16.4,2.143c5.01,2.891,8.586,7.562,10.075,13.131c0.559,2.048-0.654,4.143-2.702,4.679
	c-2.024,0.528-4.112-0.662-4.655-2.702c-1-3.615-3.308-6.624-6.538-8.499c-3.23-1.875-7.003-2.363-10.602-1.41
	c-2.04,0.567-4.12-0.646-4.687-2.67C335.116,200.317,335.289,199.277,335.777,198.434z"/>
<path id="SVGCleanerId_3" style="fill:#F28A00;" d="M300.064,50.931c-0.827-0.48-1.481-1.284-1.749-2.308
	c-1.505-5.577-0.748-11.398,2.158-16.4c2.891-5.01,7.538-8.578,13.107-10.075c2.04-0.544,4.143,0.662,4.687,2.694
	c0.512,2.056-0.67,4.135-2.694,4.679c-3.616,0.961-6.64,3.285-8.499,6.522c-1.883,3.23-2.395,7.003-1.41,10.61
	c0.544,2.04-0.646,4.135-2.702,4.679C301.946,51.601,300.93,51.412,300.064,50.931z"/>
<path id="SVGCleanerId_4" style="fill:#F28A00;" d="M188.274,234.148c0.843,0.48,1.497,1.315,1.764,2.316
	c1.512,5.577,0.748,11.414-2.143,16.392c-2.891,5.025-7.538,8.594-13.123,10.082c-2.04,0.551-4.143-0.646-4.671-2.694
	c-0.551-2.032,0.654-4.12,2.694-4.663c3.608-0.977,6.632-3.285,8.515-6.522c1.851-3.23,2.355-6.995,1.378-10.61
	c-0.536-2.024,0.646-4.112,2.71-4.671C186.407,233.503,187.439,233.668,188.274,234.148z"/>
<path id="SVGCleanerId_5" style="fill:#F28A00;" d="M348.475,117.294c-0.26-0.937-0.158-1.985,0.37-2.891
	c2.883-4.994,7.554-8.57,13.139-10.075c5.577-1.481,11.398-0.717,16.4,2.166c1.804,1.063,2.458,3.379,1.378,5.222
	c-1.032,1.82-3.363,2.442-5.199,1.386c-3.23-1.875-6.987-2.347-10.602-1.402c-3.608,0.977-6.624,3.277-8.507,6.53
	c-1.048,1.827-3.371,2.442-5.215,1.386C349.342,119.09,348.719,118.224,348.475,117.294z"/>
<path id="SVGCleanerId_6" style="fill:#F28A00;" d="M139.886,167.785c0.244,0.937,0.126,1.985-0.394,2.899
	c-2.875,5.002-7.554,8.586-13.099,10.059c-5.608,1.512-11.422,0.74-16.423-2.15c-1.827-1.063-2.458-3.379-1.378-5.207
	c1.032-1.827,3.356-2.465,5.215-1.41c3.214,1.883,6.963,2.387,10.602,1.402c3.592-0.953,6.617-3.269,8.476-6.522
	c1.04-1.812,3.395-2.45,5.215-1.394C139.012,166.005,139.618,166.848,139.886,167.785z"/>
<g>
	<path id="SVGCleanerId_1_1_" style="fill:#F28A00;" d="M152.576,86.645c-0.488,0.835-1.3,1.481-2.332,1.772
		c-5.561,1.497-11.39,0.733-16.384-2.158c-5.01-2.891-8.586-7.546-10.09-13.131c-0.544-2.032,0.662-4.128,2.694-4.663
		c2.056-0.559,4.135,0.662,4.671,2.694c0.977,3.608,3.293,6.632,6.538,8.499c3.214,1.859,6.987,2.363,10.61,1.394
		c2.024-0.544,4.112,0.67,4.679,2.694C153.23,84.755,153.049,85.794,152.576,86.645z"/>
</g>
<g>
	<path id="SVGCleanerId_2_1_" style="fill:#F28A00;" d="M335.777,198.434c0.488-0.835,1.3-1.504,2.316-1.764
		c5.577-1.512,11.406-0.74,16.4,2.143c5.01,2.891,8.586,7.562,10.075,13.131c0.559,2.048-0.654,4.143-2.702,4.679
		c-2.024,0.528-4.112-0.662-4.655-2.702c-1-3.615-3.308-6.624-6.538-8.499c-3.23-1.875-7.003-2.363-10.602-1.41
		c-2.04,0.567-4.12-0.646-4.687-2.67C335.116,200.317,335.289,199.277,335.777,198.434z"/>
</g>
<g>
	<path id="SVGCleanerId_3_1_" style="fill:#F28A00;" d="M300.064,50.931c-0.827-0.48-1.481-1.284-1.749-2.308
		c-1.505-5.577-0.748-11.398,2.158-16.4c2.891-5.01,7.538-8.578,13.107-10.075c2.04-0.544,4.143,0.662,4.687,2.694
		c0.512,2.056-0.67,4.135-2.694,4.679c-3.616,0.961-6.64,3.285-8.499,6.522c-1.883,3.23-2.395,7.003-1.41,10.61
		c0.544,2.04-0.646,4.135-2.702,4.679C301.946,51.601,300.93,51.412,300.064,50.931z"/>
</g>
<g>
	<path id="SVGCleanerId_4_1_" style="fill:#F28A00;" d="M188.274,234.148c0.843,0.48,1.497,1.315,1.764,2.316
		c1.512,5.577,0.748,11.414-2.143,16.392c-2.891,5.025-7.538,8.594-13.123,10.082c-2.04,0.551-4.143-0.646-4.671-2.694
		c-0.551-2.032,0.654-4.12,2.694-4.663c3.608-0.977,6.632-3.285,8.515-6.522c1.851-3.23,2.355-6.995,1.378-10.61
		c-0.536-2.024,0.646-4.112,2.71-4.671C186.407,233.503,187.439,233.668,188.274,234.148z"/>
</g>
<g>
	<path id="SVGCleanerId_5_1_" style="fill:#F28A00;" d="M348.475,117.294c-0.26-0.937-0.158-1.985,0.37-2.891
		c2.883-4.994,7.554-8.57,13.139-10.075c5.577-1.481,11.398-0.717,16.4,2.166c1.804,1.063,2.458,3.379,1.378,5.222
		c-1.032,1.82-3.363,2.442-5.199,1.386c-3.23-1.875-6.987-2.347-10.602-1.402c-3.608,0.977-6.624,3.277-8.507,6.53
		c-1.048,1.827-3.371,2.442-5.215,1.386C349.342,119.09,348.719,118.224,348.475,117.294z"/>
</g>
<g>
	<path id="SVGCleanerId_6_1_" style="fill:#F28A00;" d="M139.886,167.785c0.244,0.937,0.126,1.985-0.394,2.899
		c-2.875,5.002-7.554,8.586-13.099,10.059c-5.608,1.512-11.422,0.74-16.423-2.15c-1.827-1.063-2.458-3.379-1.378-5.207
		c1.032-1.827,3.356-2.465,5.215-1.41c3.214,1.883,6.963,2.387,10.602,1.402c3.592-0.953,6.617-3.269,8.476-6.522
		c1.04-1.812,3.395-2.45,5.215-1.394C139.012,166.005,139.618,166.848,139.886,167.785z"/>
</g>
<g>
	<path style="fill:#F28A00;" d="M149.977,193.937c0.488,0.835,0.63,1.875,0.362,2.907c-1.497,5.569-5.073,10.232-10.051,13.107
		c-5.018,2.883-10.831,3.655-16.416,2.158c-2.048-0.536-3.245-2.639-2.694-4.655c0.551-2.064,2.623-3.253,4.663-2.718
		c3.616,0.977,7.389,0.465,10.626-1.402c3.214-1.859,5.545-4.868,6.506-8.491c0.544-2.024,2.639-3.23,4.687-2.718
		C148.669,192.424,149.488,193.086,149.977,193.937z"/>
	<path style="fill:#F28A00;" d="M338.385,91.174c-0.473-0.843-0.654-1.89-0.362-2.899c1.481-5.585,5.081-10.24,10.051-13.115
		c5.002-2.899,10.839-3.663,16.416-2.166c2.032,0.544,3.245,2.639,2.686,4.671c-0.543,2.024-2.639,3.253-4.663,2.678
		c-3.639-0.945-7.389-0.433-10.626,1.418c-3.237,1.867-5.545,4.892-6.506,8.491c-0.528,2.024-2.631,3.237-4.671,2.71
		C339.684,92.671,338.889,92.001,338.385,91.174z"/>
	<path style="fill:#F28A00;" d="M192.796,48.355c-0.835,0.465-1.875,0.646-2.875,0.354c-5.585-1.481-10.256-5.065-13.131-10.075
		c-2.891-5.018-3.671-10.823-2.174-16.4c0.567-2.032,2.655-3.245,4.679-2.71c2.048,0.583,3.245,2.655,2.694,4.679
		c-0.969,3.608-0.457,7.381,1.418,10.61c1.843,3.245,4.86,5.577,8.483,6.538c2.048,0.536,3.253,2.623,2.702,4.671
		C194.3,47.056,193.638,47.843,192.796,48.355z"/>
	<path style="fill:#F28A00;" d="M295.566,236.756c0.827-0.488,1.875-0.638,2.875-0.362c5.593,1.473,10.264,5.049,13.131,10.051
		c2.883,5.01,3.671,10.831,2.158,16.408c-0.543,2.04-2.623,3.261-4.663,2.694c-2.032-0.528-3.253-2.623-2.694-4.655
		c0.977-3.616,0.488-7.389-1.386-10.642c-1.867-3.214-4.884-5.53-8.499-6.491c-2.032-0.544-3.253-2.623-2.702-4.687
		C294.061,238.071,294.731,237.252,295.566,236.756z"/>
	<path style="fill:#F28A00;" d="M274.479,39.596c-0.961-0.236-1.796-0.851-2.308-1.772c-2.899-5.002-3.671-10.823-2.174-16.408
		c1.497-5.569,5.065-10.24,10.075-13.123c1.827-1.024,4.159-0.433,5.215,1.41c1.048,1.82,0.418,4.135-1.41,5.199
		c-3.245,1.867-5.553,4.876-6.522,8.499c-0.961,3.616-0.473,7.381,1.418,10.618c1.048,1.843,0.417,4.151-1.418,5.215
		C276.448,39.738,275.385,39.848,274.479,39.596z"/>
	<path style="fill:#F28A00;" d="M213.906,245.499c0.914,0.252,1.78,0.874,2.316,1.788c2.875,5.002,3.647,10.846,2.15,16.376
		c-1.489,5.616-5.073,10.272-10.082,13.147c-1.82,1.071-4.143,0.441-5.199-1.402c-1.056-1.812-0.441-4.151,1.394-5.222
		c3.237-1.843,5.561-4.844,6.514-8.483c0.977-3.592,0.473-7.373-1.402-10.594c-1.04-1.82-0.425-4.159,1.402-5.207
		C211.905,245.357,212.953,245.255,213.906,245.499z"/>
	<path style="fill:#F28A00;" d="M188.298,234.148c0.835,0.496,1.481,1.315,1.749,2.347c1.505,5.569,0.74,11.39-2.15,16.384
		c-2.891,5.01-7.538,8.57-13.115,10.075c-2.048,0.551-4.128-0.67-4.679-2.67c-0.551-2.072,0.662-4.143,2.678-4.687
		c3.631-0.977,6.648-3.293,8.515-6.522c1.867-3.23,2.371-6.995,1.394-10.618c-0.536-2.009,0.677-4.112,2.71-4.687
		C186.407,233.503,187.455,233.668,188.298,234.148z"/>
	<path style="fill:#F28A00;" d="M300.095,50.947c-0.843-0.488-1.512-1.3-1.772-2.324c-1.512-5.577-0.725-11.398,2.135-16.376
		c2.891-5.01,7.546-8.586,13.123-10.082c2.04-0.559,4.159,0.662,4.671,2.702c0.528,2.032-0.654,4.128-2.678,4.655
		c-3.623,0.992-6.632,3.324-8.499,6.538c-1.883,3.23-2.371,7.01-1.41,10.594c0.567,2.024-0.646,4.128-2.678,4.695
		C301.962,51.609,300.93,51.42,300.095,50.947z"/>
	<path style="fill:#F28A00;" d="M152.576,86.669c-0.473,0.819-1.292,1.481-2.3,1.749c-5.577,1.512-11.406,0.748-16.408-2.166
		c-5.01-2.891-8.586-7.53-10.09-13.107c-0.528-2.032,0.677-4.128,2.694-4.679c2.072-0.52,4.135,0.67,4.671,2.71
		c0.977,3.6,3.293,6.617,6.554,8.476c3.214,1.89,6.987,2.402,10.594,1.418c2.032-0.559,4.143,0.646,4.679,2.702
		C153.246,84.778,153.049,85.81,152.576,86.669z"/>
	<path style="fill:#F28A00;" d="M335.793,198.45c0.473-0.835,1.284-1.497,2.324-1.764c5.553-1.512,11.398-0.756,16.376,2.135
		c5.01,2.899,8.586,7.562,10.075,13.131c0.559,2.04-0.654,4.128-2.702,4.663c-2.009,0.544-4.112-0.646-4.655-2.686
		c-0.969-3.623-3.269-6.64-6.522-8.531c-3.23-1.851-7.003-2.339-10.61-1.363c-2.024,0.536-4.112-0.646-4.663-2.71
		C335.139,200.333,335.313,199.285,335.793,198.45z"/>
	<path style="fill:#F28A00;" d="M218.947,38.249c-0.953,0.26-2.001,0.158-2.891-0.378c-5.018-2.875-8.586-7.546-10.098-13.131
		c-1.481-5.577-0.717-11.398,2.174-16.4c1.063-1.804,3.387-2.458,5.207-1.386c1.835,1.032,2.434,3.379,1.394,5.199
		c-1.898,3.237-2.371,6.995-1.426,10.618c1.008,3.608,3.308,6.632,6.561,8.491c1.812,1.063,2.434,3.387,1.386,5.222
		C220.711,37.391,219.869,38.005,218.947,38.249z"/>
	<path style="fill:#F28A00;" d="M269.438,246.854c0.929-0.252,1.985-0.142,2.907,0.37c4.994,2.891,8.562,7.57,10.051,13.107
		c1.512,5.608,0.748,11.422-2.158,16.431c-1.04,1.835-3.371,2.458-5.207,1.371c-1.82-1.032-2.45-3.356-1.402-5.222
		c1.89-3.206,2.387-6.955,1.402-10.587c-0.945-3.608-3.269-6.617-6.522-8.491c-1.796-1.04-2.442-3.387-1.386-5.207
		C267.634,247.72,268.501,247.122,269.438,246.854z"/>
</g>
<g>
</g>
<g>
</g>
<g>
</g>
<g>
</g>
<g>
</g>
<g>
</g>
<g>
</g>
<g>
</g>
<g>
</g>
<g>
</g>
<g>
</g>
<g>
</g>
<g>
</g>
<g>
</g>
<g>
</g>
</svg>
